<?xml version="1.0" standalone="no"?><!DOCTYPE svg PUBLIC "-//W3C//DTD SVG 1.1//EN" "http://www.w3.org/Graphics/SVG/1.1/DTD/svg11.dtd"><svg t="1768186599141" class="icon" viewBox="0 0 1024 1024" version="1.1" xmlns="http://www.w3.org/2000/svg" p-id="32724" xmlns:xlink="http://www.w3.org/1999/xlink" width="200" height="200"><path d="M149.376 58.410667l725.504 420.053333a42.666667 42.666667 0 0 1 0 73.813333L149.376 972.373333A42.666667 42.666667 0 0 1 85.333333 935.381333V95.317333a42.666667 42.666667 0 0 1 64.042667-36.906666z" fill="#00CAFF" p-id="32725"></path><path d="M874.752 552.362667L166.698667 962.304a12.8 12.8 0 0 1-15.530667-20.053333l551.68-562.858667 171.861333 99.072a42.666667 42.666667 0 0 1 0.042667 73.898667z" fill="#F33449" p-id="32726"></path><path d="M166.4 68.266667l708.437333 410.154666a42.666667 42.666667 0 0 1 0 73.856l-172.544 99.797334L150.826667 88.277333A12.8 12.8 0 0 1 166.4 68.266667z" fill="#07EC79" p-id="32727"></path><path d="M874.752 552.277333l-173.226667 100.096-132.608-137.002666 132.821334-137.088 173.056 100.138666a42.666667 42.666667 0 0 1 0 73.856z" fill="#FDCF00" p-id="32728"></path></svg>