<?xml version="1.0" standalone="no"?><!DOCTYPE svg PUBLIC "-//W3C//DTD SVG 1.1//EN" "http://www.w3.org/Graphics/SVG/1.1/DTD/svg11.dtd"><svg t="1768182369911" class="icon" viewBox="0 0 1024 1024" version="1.1" xmlns="http://www.w3.org/2000/svg" p-id="17459" xmlns:xlink="http://www.w3.org/1999/xlink" width="200" height="200"><path d="M512 512m-512 0a512 512 0 1 0 1024 0 512 512 0 1 0-1024 0Z" p-id="17460"></path><path d="M281.82 172.168v339.7c0 186.848 0.23 339.884 0.558 340.15s14.484-0.892 31.6-2.412 40.706-3.494 52.444-4.294c17.984-1.254 71.932-4 78.128-4.12 1.864 0 1.98-7.6 2.208-143.904l0.326-143.582-0.114-0.254v0.186L281.854 172.168z" fill="#B1060F" p-id="17461"></path><path d="M446.888 631.236l0.18-77.53-0.114-0.254v0.174L281.838 172.154l165.116 459.082z" fill="#9D030F" p-id="17462"></path><path d="M577.542 172.608l-0.326 150.262-0.328 150.184L740.6 851.924a3.404 3.404 0 0 1-1.226 0.134 4.086 4.086 0 0 0 1.456-0.134c0.54-0.36 0.654-153.328 0.54-339.992L741.04 172.58z" fill="#B1060F" p-id="17463"></path><path d="M577.068 397.096l-0.18 75.998 156.714 362.658z" fill="#9D030F" p-id="17464"></path><path d="M281.82 172.168l165.118 381.47v-0.186l13.078 30.066c72.52 167.342 111.478 257.14 111.69 257.328s11.084 0.626 24.376 1.172c40.15 1.6 89.914 5.094 127.826 8.934a103.12 103.12 0 0 0 16.674 0.986l-163.694-378.884v0.08l-15.138-34.88-84.274-194.088c-16.02-36.932-29.624-68.16-30.18-69.586l-1.094-2.506H364.02z" fill="#E50914" p-id="17465"></path></svg>