<?xml version="1.0" standalone="no"?><!DOCTYPE svg PUBLIC "-//W3C//DTD SVG 1.1//EN" "http://www.w3.org/Graphics/SVG/1.1/DTD/svg11.dtd"><svg t="1768372709492" class="icon" viewBox="0 0 1024 1024" version="1.1" xmlns="http://www.w3.org/2000/svg" p-id="33480" xmlns:xlink="http://www.w3.org/1999/xlink" width="200" height="200"><path d="M0 512C0 229.2224 229.2224 0 512 0c282.7776 0 512 229.2224 512 512 0 282.7776-229.2224 512-512 512C229.2224 1024 0 794.7776 0 512z" fill="#E8442E" p-id="33481"></path><path d="M368.6912 257.7408c-52.411733 9.386667-94.600533 48.1792-107.895467 99.191467-4.795733 18.432-5.12 29.201067-4.573866 172.100266 0.324267 131.2256 0.426667 134.280533 2.6112 144.418134 12.100267 54.613333 50.8928 93.525333 106.052266 106.376533 7.185067 1.6384 16.349867 1.962667 75.3152 2.286933 61.0304 0.426667 67.362133 0.341333 68.983467-1.314133 1.6384-1.6384 1.757867-22.664533 1.757867-261.137067 0-176.810667-0.341333-260.061867-1.092267-261.597866-1.092267-1.962667-2.952533-2.065067-66.816-1.962667-51.882667 0.119467-67.464533 0.443733-74.3424 1.6384z m98.645333 261.5808v220.842667l-44.373333-0.5632c-40.8576-0.426667-45.226667-0.648533-53.384533-2.730667-35.106133-9.045333-61.149867-36.061867-68.4544-71.2704-2.389333-11.008-2.389333-282.180267-0.1024-292.983467a93.5936 93.5936 0 0 1 56.456533-67.464533c14.3872-5.768533 21.026133-6.434133 67.6864-6.536533l42.171733-0.1024v220.808533z" fill="#FFFFFF" p-id="33482"></path><path d="M378.077867 365.1072c-6.877867 1.297067-17.339733 6.536533-22.8864 11.434667-11.451733 9.915733-17.117867 23.978667-16.247467 40.5504 0.443733 8.618667 0.9728 10.9056 4.471467 17.8688 5.12 10.581333 12.8512 18.312533 23.432533 23.552 7.304533 3.584 9.147733 4.027733 18.6368 4.352 8.618667 0.341333 11.656533 0 17.442133-1.962667 23.6544-7.953067 37.922133-30.941867 33.8944-54.493867-4.693333-28.0064-31.2832-46.762667-58.743466-41.301333zM564.0192 256.768c-0.443733 0.324267-0.768 118.4768-0.768 262.5536 0 237.738667 0.119467 261.802667 1.7408 262.468267 2.952533 1.092267 87.534933 0.648533 97.9968-0.443734 44.2368-5.0176 83.268267-31.931733 104.516267-71.936 2.730667-5.12 6.314667-13.7216 8.192-19.063466 6.843733-20.497067 6.638933-15.0528 6.638933-171.6736 0-125.013333-0.221867-143.650133-1.7408-151.6032-10.8032-56.797867-54.0672-99.618133-110.967467-109.431467C662.016 256.324267 650.24 256 612.3008 256c-26.1632 0-47.957333 0.341333-48.298667 0.768z m116.394667 237.397333a53.333333 53.333333 0 0 1 36.625066 33.9968c3.601067 10.24 3.498667 25.275733-0.1024 34.645334-6.656 17.237333-19.729067 29.3376-36.522666 33.792-27.2384 7.082667-56.234667-9.3696-64.187734-36.4032-2.389333-8.277333-2.286933-22.237867 0.426667-30.72 8.192-26.709333 36.522667-42.410667 63.761067-35.328z" fill="#FFFFFF" p-id="33483"></path></svg>