<?xml version="1.0" standalone="no"?>
<svg 
  xmlns="http://www.w3.org/2000/svg" 
  version="1.1" 
  xmlns:xlink="http://www.w3.org/1999/xlink" 
  p-id="14170" 
  width="200" 
  height="200" 
  viewBox="28 -25 213 275"
>
  <path d="m95.9,120.3l-18.02,65.31c-0.28,0.94 -0.22,2 0.4,2.86a3.16,3.16 0 0 0 4.4,0.79c0.52,-0.37 0.85,-0.83 1.12,-1.4c0.26,-0.59 18,-39.37 18,-39.37l-2.44,-25.7a2.84,2.84 0 0 0 -3.46,-2.49" fill="#fad478" id="svg_10"/>
  <path d="m144.67,54.76l14,-30.63c2.16,-5.32 1.68,-11.58 -1.85,-16.64c-5.55,-7.93 -16.47,-9.88 -24.42,-4.33a17.47,17.47 0 0 0 -6.93,10l-20.55,74.47l39.75,-32.87z" fill="#fad478" id="svg_12"/>
  <path d="m220.04,119.1l-83.5,-22.84l-1.78,1.06c-4,2.36 -5.96,7.08 -4.79,11.57l3.69,14.2l74.03,33.64c6.02,2.44 13.13,1.87 18.85,-2.15c8.97,-6.29 11.14,-18.68 4.84,-27.65a19.8,19.8 0 0 0 -11.34,-7.83" fill="#ffc151" id="svg_14"/>
  <path d="m104.92,87.63s-79.03,-21.62 -80.31,-21.95c-1.28,-0.35 -2.26,-0.25 -3.24,0.44a3.57,3.57 0 0 0 -0.88,4.99c0.42,0.58 0.92,0.96 1.59,1.26c0.67,0.3 65.36,29.71 65.36,29.71l17.48,-14.45z" fill="#ffc151" id="svg_16"/>
  <path d="m240.56,22.53c0.01,-12.23 -9.89,-22.15 -22.12,-22.17a22.12,22.12 0 0 0 -14.43,5.33l-174.17,144a4.01,4.01 0 0 0 -1.64,3.76a4.03,4.03 0 0 0 3.21,3.43c1.08,0.2 1.99,-0.03 2.92,-0.58c0.92,-0.54 57.42,-33.73 57.42,-33.73l3.34,-1.96c1.79,-1.05 4.07,0.11 4.27,2.17l6.56,68.87c1.04,7.48 5.87,14.27 13.43,17.43c10.58,4.41 22.94,-0.11 28.18,-10.31c2.68,-5.2 3.07,-10.63 1.64,-16.11l-1.44,-5.57l-17.76,-68.21a10.35,10.35 0 0 1 4.79,-11.56s89.37,-52.5 95.67,-56.22s10.12,-10.78 10.13,-18.57" fill="#ff8931" id="svg_17"/>
</svg>