<?xml version="1.0" standalone="no"?><!DOCTYPE svg PUBLIC "-//W3C//DTD SVG 1.1//EN" "http://www.w3.org/Graphics/SVG/1.1/DTD/svg11.dtd"><svg t="1768181103142" class="icon" viewBox="0 0 1024 1024" version="1.1" xmlns="http://www.w3.org/2000/svg" p-id="43717" xmlns:xlink="http://www.w3.org/1999/xlink" width="200" height="200"><path d="M572.556762 252.998017H456.346841L291.209792 724.041535h97.854255l42.787252-116.209922h165.137048l42.787253 116.209922h97.854254z m-122.349796 281.410927l61.14292-189.568634 61.206876 189.568634z" p-id="43718" fill="#2c2c2c"></path><path d="M900.528407 175.546055A505.964055 505.964055 0 0 0 598.65123 1.582936a40.101057 40.101057 0 0 0-51.165623 35.815937 47.13633 47.13633 0 0 0 35.815936 56.282185A422.883875 422.883875 0 0 1 511.669671 932.797277h-35.815936a429.66332 429.66332 0 0 1-260.944678-122.797496 431.454117 431.454117 0 0 1-122.797495-296.760614 421.668691 421.668691 0 0 1 173.963118-342.809674l30.699374 51.165623c5.116562 0 10.233125 5.116562 15.349687 5.116562s10.233125-5.116562 15.349687-10.233125L450.270923 1.582936 204.675932 6.699499c-5.116562 0-10.233125 5.116562-15.349687 10.233124a9.593554 9.593554 0 0 0 0 15.349687l30.699374 56.282186a523.680152 523.680152 0 0 0-153.496869 163.729994 543.634745 543.634745 0 0 0-66.51531 255.828115 509.929391 509.929391 0 0 0 465.60717 511.656231H511.669671a514.278469 514.278469 0 0 0 511.656231-516.772793 501.806849 501.806849 0 0 0-122.797495-327.459988" p-id="43719" fill="#2c2c2c"></path></svg>