<?xml version="1.0" standalone="no"?><!DOCTYPE svg PUBLIC "-//W3C//DTD SVG 1.1//EN" "http://www.w3.org/Graphics/SVG/1.1/DTD/svg11.dtd"><svg t="1768180969297" class="icon" viewBox="0 0 1024 1024" version="1.1" xmlns="http://www.w3.org/2000/svg" p-id="39492" xmlns:xlink="http://www.w3.org/1999/xlink" width="200" height="200"><path d="M512 0c282.763636 0 512 229.236364 512 512s-229.236364 512-512 512S0 794.763636 0 512 229.236364 0 512 0z m0 46.545455C254.929455 46.545455 46.545455 254.929455 46.545455 512s208.384 465.454545 465.454545 465.454545 465.454545-208.384 465.454545-465.454545S769.070545 46.545455 512 46.545455z" p-id="39493" fill="#2c2c2c"></path><path d="M674.955636 279.272727a69.818182 69.818182 0 1 1-30.906181 132.468364l-75.496728 75.496727a93.044364 93.044364 0 0 1 7.540364 80.384l59.298909 49.803637a69.818182 69.818182 0 1 1-27.461818 37.794909l-58.647273-49.198546a92.951273 92.951273 0 0 1-108.544 9.076364l-35.141818 35.095273a93.090909 93.090909 0 1 1-33.186909-32.581819l35.700363-35.746909a92.672 92.672 0 0 1-12.427636-46.545454c0-17.687273 4.887273-34.164364 13.451636-48.267637l-35.84-34.583272a93.090909 93.090909 0 1 1 32.861091-32.954182l36.305455 35.002182c14.103273-8.098909 30.068364-12.334545 46.312727-12.288 16.989091 0 32.861091 4.514909 46.545455 12.427636l76.241454-76.241455A69.818182 69.818182 0 0 1 674.955636 279.272727z m-349.090909 372.410182a46.545455 46.545455 0 1 0 0 93.090909 46.545455 46.545455 0 0 0 0-93.090909z m349.090909 0a23.272727 23.272727 0 0 0 0 46.545455 23.272727 23.272727 0 0 0 0-46.545455z m-186.181818-162.909091a46.545455 46.545455 0 1 0 0 93.090909 46.545455 46.545455 0 0 0 0-93.090909zM325.864727 325.818182a46.545455 46.545455 0 1 0 0 93.090909 46.545455 46.545455 0 0 0 0-93.090909z m349.090909 0a23.272727 23.272727 0 0 0 0 46.545454 23.272727 23.272727 0 0 0 0-46.545454z" p-id="39494" fill="#2c2c2c"></path></svg>