<?xml version="1.0" standalone="no"?><!DOCTYPE svg PUBLIC "-//W3C//DTD SVG 1.1//EN" "http://www.w3.org/Graphics/SVG/1.1/DTD/svg11.dtd"><svg t="1768185333194" class="icon" viewBox="0 0 1024 1024" version="1.1" xmlns="http://www.w3.org/2000/svg" p-id="5389" xmlns:xlink="http://www.w3.org/1999/xlink" width="200" height="200"><path d="M601.808 401.794a27.085 27.085 0 1 0 53.47-8.68 27.085 27.085 0 1 0-53.47 8.68z" p-id="5390" fill="#2c2c2c"></path><path d="M628.48 317.44a83.866 83.866 0 1 0 83.866 83.866 83.917 83.917 0 0 0-83.866-83.866z m54.528 87.552a54.528 54.528 0 1 1 0-3.686q0.102 1.843 0 3.686z" p-id="5391" fill="#2c2c2c"></path><path d="M960 512a447.795 447.795 0 0 0-888.627-78.9c-1.536 10.24-0.717 3.84-0.717 3.84l-0.87 6.4A445.082 445.082 0 0 0 512 960a446.976 446.976 0 0 0 146.176-24.422 204.8 204.8 0 0 0 277.402-277.402A446.976 446.976 0 0 0 960 512zM631.5 130.714a638.106 638.106 0 0 0-200.857 70.553 47.667 47.667 0 0 0-59.597 2.97c-34.099-12.647-61.85-20.48-79.513-25.6A399.36 399.36 0 0 1 631.5 130.714z m-373.35 72.755a1000.192 1000.192 0 0 1 97.28 27.648 48.435 48.435 0 0 0-0.87 9.011 45.568 45.568 0 0 0 1.587 11.725 610.202 610.202 0 0 0-170.24 218.88 47.923 47.923 0 0 0-39.168 20.48 758.09 758.09 0 0 1-31.795-22.63A398.694 398.694 0 0 1 258.15 203.468zM132.352 636.16A398.387 398.387 0 0 1 112.64 512c0-3.84 0.46-7.475 0.614-11.315 8.141 6.553 16.487 12.902 24.935 19.149a47.974 47.974 0 0 0 15.36 34.15 705.69 705.69 0 0 0-21.197 82.176z m61.44 116.787a399.974 399.974 0 0 1-36.454-57.395 808.192 808.192 0 0 1 28.518-128.82 48.282 48.282 0 0 0 18.022-3.532q30.72 18.278 62.874 33.997a58.01 58.01 0 0 0-1.894 14.387 60.62 60.62 0 0 0 3.174 18.842 565.197 565.197 0 0 0-74.189 122.521z m29.542 34.765a504.371 504.371 0 0 1 67.175-126.771c1.382 0.973 2.765 1.843 4.198 2.713a60.211 60.211 0 0 0 82.33-21.555 871.424 871.424 0 0 0 168.96 37.632c0.46 21.965 2.048 43.827 4.608 65.639v9.83a205.312 205.312 0 0 0 10.598 65.024 32.922 32.922 0 0 0-12.544 3.891 32.41 32.41 0 1 0 31.54 56.32c2.355 7.783 5.12 15.36 7.475 23.45a397.978 397.978 0 0 1-364.288-116.173z m655.36-92.16V844.8a62.618 62.618 0 0 1-2.406 18.534 26.01 26.01 0 0 1-8.96 13.108 54.426 54.426 0 0 1-16.282 8.652 248.73 248.73 0 0 1-39.372 7.424 828.617 828.617 0 0 0-3.533-18.841 140.646 140.646 0 0 0-4.71-17.613l-3.79-10.803a90.624 90.624 0 0 0 22.836 2.253 16.691 16.691 0 0 0 12.441-5.12 20.48 20.48 0 0 0 2.868-11.316V703.386h-62.874c-0.307 4.454-0.614 9.01-0.973 13.568a137.42 137.42 0 0 1-2.048 14.899A138.906 138.906 0 0 1 768 747.52a99.277 99.277 0 0 0 15.616-9.011l6.605-5.427q12.595 18.636 21.145 32.87c5.684 9.523 11.52 20.48 17.408 32.256a247.552 247.552 0 0 0-36.147 18.893q-7.68-17.664-14.54-30.72a232.14 232.14 0 0 0-14.9-24.371 142.746 142.746 0 0 1-15.104 23.756 217.14 217.14 0 0 1-19.507 21.914 141.466 141.466 0 0 1-30.72 21.248 241.1 241.1 0 0 0-13.926-26.88l-9.472-13.363a107.52 107.52 0 0 0 27.29-16.18 79.616 79.616 0 0 0 19.66-25.6 74.906 74.906 0 0 0 9.165-26.777l1.792-17.203h-60.16v156.313l1.075 32.256h-43.52l1.075-32.716v-158.72l-0.921-38.093 35.379 0.87h68.25v-17.1l-0.922-25.037h43.059l-0.922 25.036v17.101h71.424l33.588-0.87z m20.48-85.965A204.083 204.083 0 0 0 755.2 550.4h-2.97a426.035 426.035 0 0 0-31.334-73.728 117.453 117.453 0 0 1-29.696 26.317 468.07 468.07 0 0 1 20.48 52.173 204.8 204.8 0 0 0-129.74 91.494 519.987 519.987 0 0 1 21.145-129.024 117.76 117.76 0 0 1-31.59-12.186 533.043 533.043 0 0 0-24.986 139.674 910.54 910.54 0 0 1-161.229-37.325 60.006 60.006 0 0 0-13.056-33.587 624.947 624.947 0 0 1 164.352-98.304 117.76 117.76 0 0 1-19.763-36.813 650.803 650.803 0 0 0-176.845 114.176 58.266 58.266 0 0 0-56.32 14.797c-19.66-9.011-38.042-18.227-55.142-27.494a47.104 47.104 0 0 0-10.906-57.6 564.838 564.838 0 0 1 155.75-204.8c1.23 0.972 2.51 1.843 3.84 2.713a47.565 47.565 0 0 0 65.69-14.643 615.834 615.834 0 0 1 98.15 58.01 121.702 121.702 0 0 1 22.426-19.764 765.594 765.594 0 0 0-112.896-66.56 45.005 45.005 0 0 0-2.15-12.083 607.949 607.949 0 0 1 229.222-77.363 399.667 399.667 0 0 1 110.336 75.008 539.29 539.29 0 0 0-95.54 79.667 120.73 120.73 0 0 1 25.6 22.272 452.608 452.608 0 0 1 96.922-73.216 397.62 397.62 0 0 1 71.373 121.805 1000.755 1000.755 0 0 0-141.773 5.58 116.173 116.173 0 0 1 2.304 23.092 110.848 110.848 0 0 1-1.28 16.538 1024.41 1024.41 0 0 1 151.45-11.725 390.86 390.86 0 0 1 1.946 202.137z" p-id="5392" fill="#2c2c2c"></path></svg>