<?xml version="1.0" standalone="no"?><!DOCTYPE svg PUBLIC "-//W3C//DTD SVG 1.1//EN" "http://www.w3.org/Graphics/SVG/1.1/DTD/svg11.dtd"><svg t="1768186160540" class="icon" viewBox="0 0 1024 1024" version="1.1" xmlns="http://www.w3.org/2000/svg" p-id="24585" xmlns:xlink="http://www.w3.org/1999/xlink" width="200" height="200"><path d="M262.26688 856.35072l-224.8704 40.22272-4.38272 16.30208a71.35232 71.35232 0 0 0 72.17152 70.656H396.0832l-133.89824-127.09888 0.08192-0.08192z m684.11392-122.6752L349.51168 840.62208l150.28224 142.90944h423.36256a71.35232 71.35232 0 0 0 72.0896-70.73792l-48.7424-179.2h-0.12288v0.08192zM210.5344 488.52992h-9.13408c-39.85408 0-59.14624 23.51104-72.17152 70.73792L57.87648 821.0432l649.6256-116.49024-152.7808-98.95936a1236.13184 1236.13184 0 0 1-124.928 118.70208l-6.43072-5.3248-2.17088-1.59744a1147.904 1147.904 0 0 1-210.78016-228.84352h0.12288z m616.16128 0h-178.5856a890.88 890.88 0 0 1-46.40768 62.70976l208.4864 134.88128 117.59616-21.01248-28.83584-105.84064c-11.4688-50.66752-32.23552-70.73792-72.17152-70.73792h-0.08192zM165.64224 256.08192c0 195.74784 264.27392 398.70464 264.27392 398.70464s264.27392-206.4384 264.27392-398.70464A260.01408 260.01408 0 0 0 429.91616 0.49152a260.01408 260.01408 0 0 0-264.27392 255.5904zM505.0368 135.168c63.6928 0 107.1104 35.75808 107.1104 93.5936 0 64.79872-48.41472 95.8464-108.9536 95.8464h-63.488v115.26144a3.19488 3.19488 0 0 1-3.15392 3.19488H384a3.19488 3.19488 0 0 1-3.19488-3.19488V138.36288c0-1.76128 1.4336-3.15392 3.19488-3.15392z m-159.9488 0c1.76128 0 3.19488 1.39264 3.19488 3.15392v301.54752a3.19488 3.19488 0 0 1-3.19488 3.19488H292.70016a3.19488 3.19488 0 0 1-3.19488-3.19488V138.36288c0-1.76128 1.4336-3.15392 3.19488-3.15392z m153.10848 47.39072h-58.44992V277.2992h56.9344c34.28352 0 55.82848-13.84448 55.82848-47.3088 0-33.50528-23.7568-47.39072-54.31296-47.39072z" p-id="24586" fill="#2c2c2c"></path></svg>