<?xml version="1.0" standalone="no"?><!DOCTYPE svg PUBLIC "-//W3C//DTD SVG 1.1//EN" "http://www.w3.org/Graphics/SVG/1.1/DTD/svg11.dtd"><svg t="1768181366479" class="icon" viewBox="0 0 1024 1024" version="1.1" xmlns="http://www.w3.org/2000/svg" p-id="60143" xmlns:xlink="http://www.w3.org/1999/xlink" width="200" height="200"><path d="M905.536 659.456l117.184 236.224L960.576 1024H512.704l-25.856-49.344-4.8 38.784-58.368 7.168C410.752 1022.464 397.888 1024 384.448 1024s-26.304-1.536-39.232-3.328l-58.368-7.168-13.184-105.92-84.16 65.472-39.296-30.528a387.456 387.456 0 0 1-68.288-68.288l-30.4-39.296 65.408-84.096-105.6-13.12-7.36-57.6A275.84 275.84 0 0 1 0.448 640c0-13.632 1.6-26.752 3.456-39.936l7.36-57.6 105.6-13.248L51.456 445.184l30.4-39.296a383.168 383.168 0 0 1 68.288-68.288l39.232-30.528 69.056 53.696 1.408-16.64 7.36-57.6 17.408-2.304 2.176-17.536 58.112-7.296 16.128-1.344-53.568-68.864 30.4-39.296a383.168 383.168 0 0 1 68.288-68.288l39.232-30.528L529.664 116.48 542.848 10.688l58.112-7.296C613.952 1.6 626.944 0 640.448 0c13.504 0 26.496 1.6 39.488 3.392l58.112 7.296 13.184 105.792L835.52 51.008l39.232 30.528c25.728 20.032 48.768 42.944 68.288 68.288l30.4 39.296-65.408 84.032 105.6 13.248 7.36 57.6c1.856 13.248 3.456 26.368 3.456 40 0 13.76-1.6 26.944-3.456 40.128l-7.36 57.6-105.6 13.12 65.408 84.032-30.336 39.36a387.648 387.648 0 0 1-37.568 41.216z" fill="#F6F6F6" p-id="60144"></path><path d="M608.64 329.664A61.76 61.76 0 0 1 640.448 320a64 64 0 0 1 64 64 62.336 62.336 0 0 1-9.664 31.808l-7.68-9.984a383.168 383.168 0 0 0-68.288-68.288l-10.176-7.872z m-113.408 42.816l20.224-15.744A128 128 0 0 1 640.448 256c70.656 0 128 56.832 128 127.488C768.448 407.296 761.792 448 750.528 448h50.624l74.176 150.016 17.152-19.2-61.376-78.656c11.904-19.52 20.928-40.704 26.496-63.552l98.816-12.224c1.664-13.44 4.032-26.496 4.032-40.384 0-13.76-2.368-26.88-4.096-40.256l-98.816-12.352a224.128 224.128 0 0 0-26.496-63.616l61.376-78.784a322.048 322.048 0 0 0-56.96-56.96l-78.848 61.312a222.336 222.336 0 0 0-63.616-26.496l-12.224-98.752C667.392 66.432 654.272 64 640.448 64c-13.824 0-26.944 2.432-40.32 4.096l-12.288 98.816a220.8 220.8 0 0 0-63.616 26.496l-78.848-61.376a319.552 319.552 0 0 0-56.896 56.96l56.96 73.088 36.672 4.608 13.12 105.792z m-22.144 472.256a209.92 209.92 0 0 1-36.032 12.352l-12.288 98.944c-13.376 1.6-26.496 3.968-40.32 3.968l-40.32-4.032-12.288-98.88a222.336 222.336 0 0 1-63.616-26.496l-78.784 61.376a322.048 322.048 0 0 1-56.96-56.96l61.376-78.848a221.568 221.568 0 0 1-26.496-63.616l-98.816-12.224C66.816 667.008 64.448 653.888 64.448 640c0-13.76 2.368-26.88 4.032-40.256l98.816-12.352c5.568-22.784 14.592-44.096 26.496-63.616l-61.312-78.784c16.512-21.312 35.648-40.384 56.96-56.96l78.784 61.312c19.52-11.904 40.832-20.992 63.616-26.496l12.288-98.752C357.504 322.432 370.624 320 384.448 320l40.32 4.032 12.288 98.816c22.784 5.504 44.096 14.592 63.616 26.496l78.784-61.312c21.312 16.576 40.448 35.584 56.96 56.96l-61.312 78.784c11.968 19.52 20.928 40.832 26.496 63.616l0.768 0.128-129.28 257.216zM512.448 640a128 128 0 1 0-256.064 0.064A128 128 0 0 0 512.448 640zM384.448 576a64 64 0 1 0 0 128 64 64 0 0 0 0-128z" fill="#2c2c2c" p-id="60145" data-spm-anchor-id="a313x.search_index.0.i46.5b263a81PSAbag" class="selected"></path><path d="M579.52 307.008l-64 49.728a127.936 127.936 0 1 1 235.008 92.288h-36.032l3.008-3.84-22.656-29.376A62.912 62.912 0 0 0 704.448 384a64 64 0 0 0-64-64 62.08 62.08 0 0 0-31.744 9.664l-29.184-22.656zM384.448 512a128 128 0 1 0 0.064 256.064A128 128 0 0 0 384.448 512z m0 192a64 64 0 1 1 0-128 64 64 0 0 1 0 128z" fill="#F0EFF1" p-id="60146"></path><path d="M761.472 513.024h-49.984l-193.024 384 32.96 62.976h369.024l30.976-64-189.952-382.976zM768.448 896h-64v-64h64v64z m0-128h-64v-128h64v128z" fill="#FFCC00" p-id="60147"></path><path d="M768.448 768h-64v-128h64v128z m0 64h-64v64h64v-64z" p-id="60148" data-spm-anchor-id="a313x.search_index.0.i48.5b263a81PSAbag" class="selected" fill="#2c2c2c"></path></svg>