<?xml version="1.0" standalone="no"?><!DOCTYPE svg PUBLIC "-//W3C//DTD SVG 1.1//EN" "http://www.w3.org/Graphics/SVG/1.1/DTD/svg11.dtd"><svg t="1768212304101" class="icon" viewBox="0 0 1024 1024" version="1.1" xmlns="http://www.w3.org/2000/svg" p-id="47547" xmlns:xlink="http://www.w3.org/1999/xlink" width="200" height="200"><path d="M386.499765 184.470588a96.617412 96.617412 0 1 0 0 193.264941 96.617412 96.617412 0 0 0 0-193.264941z m0 52.705883a43.911529 43.911529 0 1 1 0 87.853176 43.911529 43.911529 0 0 1 0-87.853176zM456.794353 500.705882a26.352941 26.352941 0 0 1 3.312941 52.495059l-3.312941 0.210824h-122.970353c-56.32 0-96.677647 39.996235-96.647529 96.617411 0 54.693647 37.616941 93.846588 90.864941 96.496942l5.782588 0.150588h263.529412a26.352941 26.352941 0 0 1 3.312941 52.495059l-3.312941 0.210823h-263.529412c-85.293176 0-149.353412-63.518118-149.353412-149.353412 0-83.546353 60.717176-145.980235 142.637177-149.202823l6.716235-0.120471h122.970353z" fill="#2c2c2c" p-id="47548"></path><path d="M720.293647 254.735059c85.323294 0 149.383529 63.518118 149.353412 149.353412 0 83.576471-60.717176 145.980235-142.637177 149.202823l-6.716235 0.120471h-263.529412a26.352941 26.352941 0 0 1-3.282823-52.495059l3.312941-0.210824h263.529412c56.259765 0 96.617412-39.996235 96.617411-96.617411 0-54.663529-37.616941-93.846588-90.864941-96.496942l-5.782588-0.150588h-263.529412a26.352941 26.352941 0 0 1-3.312941-52.495059l3.312941-0.210823h263.529412zM316.235294 254.735059a26.352941 26.352941 0 0 1 3.312941 52.525176l-3.312941 0.180706H210.823529a26.352941 26.352941 0 0 1-3.312941-52.495059L210.823529 254.735059h105.411765zM843.294118 746.676706a26.352941 26.352941 0 0 1 3.312941 52.495059l-3.312941 0.210823h-105.411765a26.352941 26.352941 0 0 1-3.312941-52.525176l3.312941-0.180706H843.294118z" fill="#2c2c2c" p-id="47549"></path><path d="M667.617882 676.382118a96.617412 96.617412 0 1 0 0 193.264941 96.617412 96.617412 0 0 0 0-193.264941z m0 52.705882a43.911529 43.911529 0 1 1 0 87.853176 43.911529 43.911529 0 0 1 0-87.853176z" fill="#2c2c2c" p-id="47550"></path></svg>