<?xml version="1.0" standalone="no"?><!DOCTYPE svg PUBLIC "-//W3C//DTD SVG 1.1//EN" "http://www.w3.org/Graphics/SVG/1.1/DTD/svg11.dtd"><svg t="1768181222100" class="icon" viewBox="0 0 1024 1024" version="1.1" xmlns="http://www.w3.org/2000/svg" p-id="51353" xmlns:xlink="http://www.w3.org/1999/xlink" width="200" height="200"><path d="M923.8 337.9C901.3 284.6 869 236.8 828 195.7c-41-41.1-88.9-73.3-142.2-95.8-55.1-23.3-113.7-35.2-174.1-35.2-60.4 0-118.9 11.8-174.1 35.2-53.3 22.5-101.1 54.8-142.2 95.8-41.1 41-73.3 88.9-95.8 142.2C76.3 393.1 64.5 451.6 64.5 512s11.8 119 35.2 174.1c22.5 53.3 54.8 101.1 95.8 142.2 41.1 41.1 88.9 73.3 142.2 95.8 55.1 23.3 113.7 35.2 174.1 35.2 60.4 0 118.9-11.8 174.1-35.2 53.3-22.5 101.1-54.8 142.2-95.8 41.1-41.1 73.3-88.9 95.8-142.2C947.1 631 959 572.4 959 512s-11.9-118.9-35.2-174.1z m-27.6 336.5c-21 49.7-51.1 94.3-89.4 132.6-38.3 38.3-82.9 68.4-132.6 89.4-51.4 21.8-106.1 32.8-162.4 32.8-56.3 0-111-11-162.4-32.8-49.7-21-94.3-51.1-132.6-89.4-38.3-38.3-68.4-82.9-89.4-132.6C105.5 623 94.5 568.3 94.5 512s11-111 32.8-162.4c21-49.7 51.1-94.3 89.4-132.6s82.9-68.4 132.6-89.4c51.4-21.8 106.1-32.8 162.4-32.8s111 11 162.4 32.8c49.7 21 94.3 51.1 132.6 89.4s68.4 82.9 89.4 132.6C917.9 401 929 455.7 929 512s-11.1 111-32.8 162.4z" p-id="51354" fill="#2c2c2c"></path><path d="M735 575.1h-14.3v-28.4c0-24.8-8-34.1-33.2-34.1H528.6V481h106.8c5.1-0.1 6.7-4.2 3.7-9l-32-59c-15.4-31.6-15.5-28.3-33.9-28.3H434.9c-12.8 0-15.9 8.6-16.1 9.4v-0.1l-32.6 78c-3 4.8-1.4 9 3.7 9h106.9v31.6h-159c-21.1 0-33.2 8-33.2 34.1v28.4H290c-21.1 0-33.2 8-33.2 34.1v125.1c0 26.1 10.7 34.1 33.2 34.1h62.3c22.3 0 33.2-12.2 33.2-34.1V609.2c0-24.7-8-34.1-33.2-34.1h-14.9v-18.8c0-6.3 4.9-11.4 11.1-11.4h148.3v30.2h-16.1c-21.1 0-33.2 8-33.2 34.1v125.1c0 26.1 10.7 34.1 33.2 34.1H543c22.3 0 33.2-12.2 33.2-34.1V609.2c0-24.7-8-34.1-33.2-34.1h-14.4v-30.2h148.5c6.1 0 11.1 5.1 11.1 11.4v18.8h-15.5c-21.1 0-33.2 8-33.2 34.1v125.1c0 26.1 10.7 34.1 33.2 34.1H735c22.3 0 33.2-12.2 33.2-34.1V609.2c-0.1-24.7-8.1-34.1-33.2-34.1zM449.5 416.7l126.7 0.6 17 31-160.1 0.4 16.4-32z m-96.6 203.2v105.5c0 6.3-4.9 11.4-11.1 11.4h-41.7c-6.1 0-11.1-5.1-11.1-11.4V619.9c0-6.3 4.9-11.4 11.1-11.4h41.7c6.1 0 11.1 5.1 11.1 11.4z m190.7 0v105.5c0 6.3-4.9 11.4-11.1 11.4h-41.7c-6.1 0-11.1-5.1-11.1-11.4V619.9c0-6.3 4.9-11.4 11.1-11.4h41.7c6.1 0 11.1 5.1 11.1 11.4z m192 105.5c0 6.3-4.9 11.4-11.1 11.4h-41.7c-6.1 0-11.1-5.1-11.1-11.4V619.9c0-6.3 4.9-11.4 11.1-11.4h41.7c6.1 0 11.1 5.1 11.1 11.4v105.5zM453.1 368.4h119.8c26.6 0 35.3-11.3 35.3-34.2v-43.5c0.1-21.5-10-34.2-35.3-34.2H453.1c-22.3 0-36.4 8.9-36.4 34.2v43.5c0 25.7 10.5 34.2 36.4 34.2z m-4.4-67.8c0-6.3 4.4-11.4 10.5-11.4h106.5c6.1 0 11.1 5.1 11.1 11.4l-0.1 25.3c0 6.3-4.9 11.4-11.1 11.4H459.2c-6.1 0-10.5-5.1-10.5-11.4v-25.3z" p-id="51355" fill="#2c2c2c"></path></svg>