<?xml version="1.0" standalone="no"?><!DOCTYPE svg PUBLIC "-//W3C//DTD SVG 1.1//EN" "http://www.w3.org/Graphics/SVG/1.1/DTD/svg11.dtd"><svg t="1768195326179" class="icon" viewBox="0 0 1024 1024" version="1.1" xmlns="http://www.w3.org/2000/svg" p-id="123221" xmlns:xlink="http://www.w3.org/1999/xlink" width="200" height="200"><path d="M512 0C228.8 0 0 228.8 0 512s228.8 512 512 512 512-228.8 512-512S795.2 0 512 0zM334.4 801.6h-89.6V395.2h89.6v406.4z m148.8 0h-89.6V468.8h89.6v332.8z m148.8 0h-89.6V564.8h89.6v236.8z m148.8 0h-89.6V598.4h89.6v203.2z m9.6-292.8c-6.4 8-16 12.8-27.2 12.8-4.8 0-9.6-1.6-14.4-3.2L246.4 288c-3.2-1.6-8-4.8-11.2-9.6-8-9.6-11.2-24-4.8-36.8 4.8-12.8 17.6-20.8 30.4-20.8 4.8 0 9.6 1.6 14.4 3.2L640 393.6l-78.4-94.4c-6.4-6.4-8-16-8-25.6 1.6-9.6 4.8-17.6 12.8-24 14.4-12.8 36.8-9.6 48 4.8L788.8 464c11.2 14.4 12.8 32 1.6 44.8z" fill="#07A17D" p-id="123222"></path></svg>