<?xml version="1.0" standalone="no"?><!DOCTYPE svg PUBLIC "-//W3C//DTD SVG 1.1//EN" "http://www.w3.org/Graphics/SVG/1.1/DTD/svg11.dtd"><svg t="1768180898101" class="icon" viewBox="0 0 1024 1024" version="1.1" xmlns="http://www.w3.org/2000/svg" p-id="36456" xmlns:xlink="http://www.w3.org/1999/xlink" width="200" height="200"><path d="M512 983.04c260.132571 0 471.04-210.907429 471.04-471.04S772.132571 40.96 512 40.96 40.96 251.867429 40.96 512 251.867429 983.04 512 983.04zM512 1024C229.229714 1024 0 794.770286 0 512S229.229714 0 512 0s512 229.229714 512 512-229.229714 512-512 512z m248.539429-504.027429v182.674286l-0.512 6.948572a18.651429 18.651429 0 0 1 0 2.925714c-4.681143 102.217143-74.24 162.998857-186.587429 162.998857h-28.745143c-93.184 0-156.598857-34.779429-191.670857-105.801143a1042.651429 1042.651429 0 0 0-124.16-206.848 60.123429 60.123429 0 0 1-2.450286-85.138286 63.122286 63.122286 0 0 1 80.713143-11.044571 1207.076571 1207.076571 0 0 1 80.64 56.832v-154.185143a118.930286 118.930286 0 1 1 180.260572-101.741714 116.882286 116.882286 0 0 1-56.576 101.961143v22.528c6.838857-2.633143 14.08-4.022857 21.394285-4.096a60.708571 60.708571 0 0 1 55.222857 36.096c8.411429-4.388571 17.810286-6.619429 27.355429-6.619429 26.514286 0.219429 49.883429 17.554286 57.819429 42.825143 8.045714-3.510857 16.676571-5.339429 25.417142-5.302857 34.925714 1.097143 62.500571 30.061714 61.878858 64.987428z m-311.113143-329.764571a78.738286 78.738286 0 0 0-78.701715 77.458286c-0.073143 18.029714 6.034286 35.474286 17.298286 49.554285V275.931429a61.44 61.44 0 1 1 122.733714-0.219429v42.203429c11.593143-14.153143 17.773714-31.963429 17.444572-50.249143a78.774857 78.774857 0 0 0-78.774857-77.458286z m-162.998857 310.784a23.003429 23.003429 0 0 0-30.610286 4.717714 20.406857 20.406857 0 0 0 2.121143 29.366857l0.731428 0.804572a1047.771429 1047.771429 0 0 1 130.56 216.502857c28.050286 56.941714 77.092571 83.309714 155.574857 83.309714h28.745143c32.365714 0 64.256-6.290286 90.331429-21.723428 35.766857-21.174857 56.027429-57.234286 55.881143-111.908572V518.948571a23.808 23.808 0 0 0-22.016-25.234285 21.577143 21.577143 0 0 0-21.796572 23.04v69.997714a20.114286 20.114286 0 1 1-40.082285 0.438857l0.036571-107.227428a21.357714 21.357714 0 1 0-42.496 0.512v99.693714a20.114286 20.114286 0 1 1-40.045714 0.438857v-130.084571a21.467429 21.467429 0 1 0-42.605715 0.585142v129.060572a20.114286 20.114286 0 1 1-40.082285 0.438857v-305.371429a21.357714 21.357714 0 1 0-42.459429 0.475429v331.739429a20.114286 20.114286 0 1 1-40.082286 0.475428v-32.219428a983.149714 983.149714 0 0 0-101.705142-74.715429z" fill="#2c2c2c" p-id="36457"></path></svg>