<?xml version="1.0" standalone="no"?><!DOCTYPE svg PUBLIC "-//W3C//DTD SVG 1.1//EN" "http://www.w3.org/Graphics/SVG/1.1/DTD/svg11.dtd"><svg t="1768184310683" class="icon" viewBox="0 0 1024 1024" version="1.1" xmlns="http://www.w3.org/2000/svg" p-id="27235" xmlns:xlink="http://www.w3.org/1999/xlink" width="200" height="200"><path d="M394.581333 424.123733l-36.693333 133.632h71.901867l-35.208534-133.632z m60.706134 233.2672l-11.298134-42.018133h-100.283733l-12.049067 42.461867A34.133333 34.133333 0 0 1 298.837333 682.666667h-8.430933a25.565867 25.565867 0 0 1-24.507733-32.836267l84.2752-284.074667A34.133333 34.133333 0 0 1 382.8736 341.333333h22.801067a34.133333 34.133333 0 0 1 32.768 24.558934l82.944 283.665066A25.856 25.856 0 0 1 496.554667 682.666667h-8.328534a34.133333 34.133333 0 0 1-32.955733-25.258667zM660.992 682.666667h-79.36a34.133333 34.133333 0 0 1-34.133333-34.133334V375.466667a34.133333 34.133333 0 0 1 34.133333-34.133334h79.36c68.471467 0 115.933867 41.642667 115.933867 124.928v90.043734c0 82.295467-47.445333 126.3616-115.933867 126.3616z m-7.8336-277.418667h-38.161067v213.998933h38.161067c32.290133 0 56.746667-12.5952 56.746667-79.4112v-66.321066c0-36.795733-9.7792-68.266667-56.746667-68.266667z" fill="#d81e06" p-id="27236"></path><path d="M512 93.866667c230.929067 0 418.133333 187.204267 418.133333 418.133333S742.929067 930.133333 512 930.133333 93.866667 742.929067 93.866667 512 281.070933 93.866667 512 93.866667z m280.866133 181.998933l-513.706666 513.706667a25.736533 25.736533 0 0 1-3.618134 3.003733A365.397333 365.397333 0 0 0 512 878.933333c202.6496 0 366.933333-164.283733 366.933333-366.933333 0-89.941333-32.3584-172.322133-86.0672-236.1344zM512 145.066667C309.3504 145.066667 145.066667 309.3504 145.066667 512a365.568 365.568 0 0 0 94.4128 245.7088c0.989867-1.553067 2.1504-3.003733 3.498666-4.352L757.248 239.104A365.568 365.568 0 0 0 512 145.066667z" fill="#d81e06" p-id="27237"></path></svg>