<?xml version="1.0" standalone="no"?><!DOCTYPE svg PUBLIC "-//W3C//DTD SVG 1.1//EN" "http://www.w3.org/Graphics/SVG/1.1/DTD/svg11.dtd"><svg t="1768185348132" class="icon" viewBox="0 0 1024 1024" version="1.1" xmlns="http://www.w3.org/2000/svg" p-id="5273" xmlns:xlink="http://www.w3.org/1999/xlink" width="200" height="200"><path d="M601.941 401.616a27.136 27.136 0 1 0 53.572-8.69 27.136 27.136 0 1 0-53.572 8.69z" p-id="5274" fill="#2c2c2c"></path><path d="M628.224 317.44c-46.08 0-83.968 37.376-83.968 83.968 0 46.08 37.376 83.968 83.968 83.968 46.08 0 83.968-37.376 83.968-83.968a83.69 83.69 0 0 0-83.968-83.968z m54.784 87.552c-1.024 30.208-26.112 53.76-56.32 52.736-30.208-1.024-53.76-26.112-52.736-56.32 1.024-28.672 24.064-51.712 52.736-52.736 30.208-1.024 55.296 22.528 56.32 52.736v3.584z" p-id="5275" fill="#2c2c2c"></path><path d="M960 512c0-247.296-200.704-448-448-448-220.672 0-403.456 159.232-440.832 369.152-1.536 10.24-0.512 4.096-0.512 4.096l-1.024 6.656C66.56 465.92 64 488.448 64 512c0 247.296 200.704 448 448 448 51.2 0 100.352-8.704 145.92-24.576C686.592 950.784 719.872 960 755.2 960 868.352 960 960 868.352 960 755.2c0-35.328-8.704-68.096-24.576-97.28C951.296 612.352 960 563.2 960 512zM631.296 130.56c-78.336 14.336-144.896 38.912-200.704 70.656-17.92-13.312-43.008-11.776-59.392 3.072-34.304-12.8-61.952-20.48-79.36-25.6 99.84-66.048 224.768-83.968 339.456-48.128z m-373.248 72.704c34.816 8.192 67.072 17.408 97.28 27.648-0.512 3.072-1.024 6.144-1.024 9.216 0 4.096 0.512 7.68 1.536 11.776-81.92 65.536-135.68 145.92-169.984 218.624-15.36 0-30.208 7.68-39.424 20.48a2198.564 2198.564 0 0 1-31.744-22.528c11.776-103.936 62.976-198.656 143.36-265.216zM132.096 636.416c-12.8-38.912-19.968-80.896-19.968-124.416 0-4.096 0.512-7.68 0.512-11.264 8.192 6.656 16.384 12.8 25.088 18.944 0.512 12.8 5.632 25.6 15.36 34.304-10.24 32.768-16.896 61.44-20.992 82.432z m61.952 116.736c-13.824-17.92-26.112-37.376-36.352-57.344 6.144-43.52 15.36-86.528 28.672-129.024 6.144 0 12.288-1.024 17.92-3.584a744.33 744.33 0 0 0 62.976 33.792c-1.024 4.608-2.048 9.216-2.048 14.336 0 6.656 1.024 12.8 3.072 18.944-30.208 37.888-54.784 78.848-74.24 122.88z m29.184 34.304c16.384-45.056 38.912-88.064 67.072-126.976 1.536 1.024 2.56 2.048 4.096 2.56 28.672 16.896 65.536 7.168 82.432-21.504 54.784 17.92 111.616 30.72 168.96 37.888 0.512 22.016 2.048 44.032 4.608 65.536v9.728c0 22.528 3.584 44.544 10.752 65.024-4.608 0.512-8.704 1.536-12.8 4.096-15.872 8.704-20.992 28.672-12.288 44.032 8.704 15.872 28.672 20.992 44.032 12.288 2.56 7.68 5.12 15.36 7.68 23.552-133.632 26.112-270.848-17.408-364.544-116.224z m533.504-91.136c-1.024 10.752-3.584 27.648-8.704 50.688s-12.288 44.544-20.992 63.488-21.504 35.328-37.376 49.152-31.232 25.088-45.568 33.792c-3.584-6.656-7.168-12.288-11.776-18.432s-7.168-9.728-9.216-11.264l-7.68-7.68c9.728-4.096 17.92-8.704 24.576-13.312s14.336-11.264 23.04-19.456 16.896-17.92 24.576-28.672c-3.072-3.584-8.192-8.192-13.824-12.8s-11.776-9.728-17.92-13.824c10.24-14.336 15.36-22.016 15.872-23.04l5.632-10.24c9.216 6.656 17.92 13.312 25.6 20.48 3.584-11.264 6.144-19.968 7.168-27.136s2.56-14.848 3.584-23.552h-31.232c-9.216 23.04-15.36 36.864-17.92 41.984s-8.704 15.872-19.456 33.28c-12.288-12.288-19.968-19.456-23.552-21.504l-10.24-6.656c13.824-19.456 23.552-36.352 28.672-51.712s9.728-28.672 12.288-39.424 4.096-19.968 5.12-27.136l2.048-15.36c5.632 2.048 9.216 3.072 11.264 3.584s12.288 2.56 30.72 5.632c-3.072 10.752-6.144 23.04-9.216 36.352l65.024 0.512c1.024 10.752 0 21.504-0.512 32.256z m106.496 107.008c-2.048-3.072-5.632-8.704-11.264-17.92s-10.24-16.896-14.336-23.04-12.8-17.92-26.112-34.304V860.16l1.024 32.768h-43.52l1.024-32.768V654.848l-1.024-31.744h43.52l-1.024 31.744v45.056c6.144-4.608 11.264-9.216 16.896-14.336 4.096 4.608 9.728 10.752 16.896 18.432s11.776 12.8 13.824 15.36l18.432 23.04c10.24 12.8 16.384 20.992 18.432 24.576l4.096 7.68c-11.264 7.168-23.552 16.896-36.864 28.672z m35.84-193.536A203.213 203.213 0 0 0 755.2 550.4h-3.072c-8.192-26.112-18.944-50.688-31.232-73.728-8.192 10.24-18.432 19.456-29.696 26.112 7.68 16.896 14.336 34.304 20.48 52.224-54.784 11.776-100.864 45.568-129.536 91.648 1.536-43.52 8.704-87.04 20.992-129.024-11.264-2.56-22.016-6.656-31.744-12.288-14.336 45.056-22.528 92.16-24.576 139.776-54.784-7.68-108.544-19.968-161.28-37.376-1.024-12.8-5.632-24.064-12.8-33.792 49.664-40.96 104.96-74.24 164.352-98.304-8.704-10.752-15.36-23.04-19.968-36.864-64.512 28.16-124.416 67.072-176.64 114.176-4.608-1.024-9.728-2.048-14.848-2.048-15.36 0-30.208 6.144-41.472 16.896-19.456-9.216-37.888-18.432-55.296-27.648 3.584-6.656 5.632-14.336 5.632-22.016 0-13.824-6.144-26.624-16.384-35.84 41.472-90.624 97.28-156.672 155.648-204.8 1.024 1.024 2.56 2.048 3.584 2.56 22.016 14.336 51.712 7.68 65.536-14.336 34.304 16.384 67.072 35.84 98.304 57.856 6.656-7.68 14.336-14.336 22.528-19.968-37.376-27.136-76.288-48.64-113.152-66.56 0-4.096-1.024-8.192-2.048-12.288 98.816-57.344 192.512-73.216 229.376-77.312 40.96 18.432 77.824 44.032 110.08 74.752-34.816 23.04-67.072 49.664-95.744 79.872 9.728 6.144 18.432 13.824 25.6 22.016 37.888-37.376 74.752-60.928 96.768-73.216 30.72 35.84 54.784 77.312 71.168 121.856-50.688-1.536-97.792 0.512-141.824 5.632 1.536 7.68 2.048 15.36 2.56 23.04 0 5.632-0.512 11.264-1.536 16.384 68.608-10.24 123.904-11.776 151.552-11.776 9.216 33.28 14.336 68.096 14.336 104.448 0.512 35.328-3.584 68.096-11.776 99.328z" p-id="5276" fill="#2c2c2c"></path></svg>