<?xml version="1.0" standalone="no"?><!DOCTYPE svg PUBLIC "-//W3C//DTD SVG 1.1//EN" "http://www.w3.org/Graphics/SVG/1.1/DTD/svg11.dtd"><svg t="1768189599570" class="icon" viewBox="0 0 1105 1024" version="1.1" xmlns="http://www.w3.org/2000/svg" p-id="92717" xmlns:xlink="http://www.w3.org/1999/xlink" width="215.8203125" height="200"><path d="M711.59808 542.63808c4.38272-2.8672 7.33184-10.15808 8.97024-13.84448 20.23424-47.34976-51.15904-119.84896-93.42976-92.07808-72.58112 63.81568-137.54368 128.28672-220.7744 174.32576-153.43616 84.7872-318.54592 105.22624-313.26208 105.30816-36.16768 2.17088-45.4656-21.7088-15.85152-43.008 30.59712-21.9136-64.22528 10.69056-74.91584 59.8016-0.90112 10.77248 6.59456 59.47392 120.75008 52.26496 67.91168-6.43072 173.2608-22.69184 237.48608-45.6704 138.56768-49.68448 224.78848-96.6656 351.0272-197.09952zM593.26464 25.14944c1.35168 0.8192 2.6624 1.2288 3.97312 2.048 0.6144 0.4096 1.2288 0.4096 1.6384 0.8192a29.81888 29.81888 0 0 0-5.61152-2.8672z m401.36704 511.09888c-9.95328 1.39264-19.41504 1.72032-27.15648 31.90784-3.2768 12.9024-4.25984 22.528-22.85568 57.22112-18.59584 21.34016-32.1536 27.8528-61.8496 18.10432-106.2912-91.09504-218.84928-13.23008-164.16768 109.48608 50.95424 112.64-101.74464 165.60128-116.16256 43.29472 18.26816-164.864-141.312-120.54528-178.62656-30.47424-42.8032 75.20256-61.93152 112.31232-125.66528 84.66432a416.64512 416.64512 0 0 1-69.71392-58.24512 323.87072 323.87072 0 0 1-76.47232 8.84736c-3.44064 0-6.88128-0.12288-10.36288-0.2048 10.15808 14.1312 40.5504 51.6096 53.248 62.30016a485.53984 485.53984 0 0 0 342.71232 141.312c212.25472 0 392.92928-136.11008 460.3904-326.32832h-0.4096c10.69056-29.16352 18.71872-59.67872 23.7568-91.17696l5.44768-35.38944c0 0.2048-8.72448-18.67776-32.11264-15.31904zM103.58784 652.82048c40.96 0.73728 27.648-68.4032 30.59712-94.8224 11.38688-83.27168 74.62912-178.13504 200.704-100.84352-10.40384-5.7344 56.60672 48.16896 118.3744 33.21856 63.97952-15.36 101.1712-67.70688 98.83648-186.24512 0.32768-95.4368 98.0992-158.47424 150.7328-150.65088 0 0 53.49376 5.40672 57.7536-40.1408 2.94912-30.80192-11.0592-43.4176-11.0592-43.4176-14.336-6.92224-44.2368-31.82592-152.28928-44.72832-8.72448-0.90112-38.5024-3.76832-60.2112-3.76832h-0.8192c-271.1552 0-491.1104 219.17696-491.1104 489.472 0 74.1376 4.83328 141.1072 58.49088 141.9264z m651.38688-135.33184h56.68864a3.44064 3.44064 0 0 0 3.44064-3.44064V187.84256a3.44064 3.44064 0 0 0-3.44064-3.44064h-56.68864a3.44064 3.44064 0 0 0-3.44064 3.44064v326.20544c0 1.92512 1.55648 3.44064 3.44064 3.44064z m229.70368-333.08672c68.93568 0 115.9168 38.7072 115.9168 101.25312 0 70.12352-52.4288 103.6288-117.88288 103.6288h-68.64896v124.76416a3.44064 3.44064 0 0 1-3.44064 3.44064h-56.89344a3.44064 3.44064 0 0 1-3.44064-3.44064V187.84256c0-1.92512 1.55648-3.44064 3.44064-3.44064z m-7.3728 51.24096h-63.24224v102.48192h61.60384c37.0688 0 60.37504-14.99136 60.37504-51.2s-25.72288-51.28192-58.73664-51.28192z" p-id="92718" fill="#2c2c2c"></path></svg>