<?xml version="1.0" standalone="no"?><!DOCTYPE svg PUBLIC "-//W3C//DTD SVG 1.1//EN" "http://www.w3.org/Graphics/SVG/1.1/DTD/svg11.dtd"><svg t="1768202019931" class="icon" viewBox="0 0 1024 1024" version="1.1" xmlns="http://www.w3.org/2000/svg" p-id="31579" xmlns:xlink="http://www.w3.org/1999/xlink" width="200" height="200"><path d="M512 0a512 512 0 1 1 0 1024A512 512 0 0 1 512 0z m0 64a448 448 0 1 0 0 896A448 448 0 0 0 512 64z" fill="#6FC77E" p-id="31580"></path><path d="M256.64 480h440.384a32 32 0 0 1 5.76 63.488l-5.76 0.512H256.64a32 32 0 0 1-5.76-63.488l5.76-0.512z" fill="#6FC77E" p-id="31581"></path><path d="M533.76 266.688a32 32 0 0 1 44.352-45.76l4.16 3.968 184.32 214.272a96 96 0 0 1 5.76 117.76l-5.76 7.488-184.32 214.272a32 32 0 0 1-51.84-37.12l3.328-4.672 184.32-214.208a32 32 0 0 0 3.328-36.992l-3.328-4.8-184.32-214.208z" fill="#6FC77E" p-id="31582"></path></svg>