<?xml version="1.0" standalone="no"?><!DOCTYPE svg PUBLIC "-//W3C//DTD SVG 1.1//EN" "http://www.w3.org/Graphics/SVG/1.1/DTD/svg11.dtd"><svg t="1768201915155" class="icon" viewBox="0 0 1024 1024" version="1.1" xmlns="http://www.w3.org/2000/svg" p-id="20352" xmlns:xlink="http://www.w3.org/1999/xlink" width="200" height="200"><path d="M0 512A512 512 0 1 0 512 0 513.514667 513.514667 0 0 0 0 512z" fill="#F5510D" p-id="20353"></path><path d="M263.68 798.72a34.986667 34.986667 0 0 1-35.84-35.84 45.482667 45.482667 0 0 1 10.24-25.6l496.64-499.2a36.266667 36.266667 0 1 1 51.2 51.2L289.28 785.92a35.541333 35.541333 0 0 1-25.6 12.8z" fill="#FFFFFF" p-id="20354"></path><path d="M760.32 798.72a45.482667 45.482667 0 0 1-25.6-10.24l-496.64-499.2a36.266667 36.266667 0 1 1 51.2-51.2l499.2 499.2a34.133333 34.133333 0 0 1 0 51.2 53.696 53.696 0 0 1-28.16 10.24z" fill="#FFFFFF" p-id="20355"></path></svg>