<?xml version="1.0" standalone="no"?><!DOCTYPE svg PUBLIC "-//W3C//DTD SVG 1.1//EN" "http://www.w3.org/Graphics/SVG/1.1/DTD/svg11.dtd"><svg t="1768197983833" class="icon" viewBox="0 0 1024 1024" version="1.1" xmlns="http://www.w3.org/2000/svg" p-id="22227" xmlns:xlink="http://www.w3.org/1999/xlink" width="200" height="200"><path d="M512 0C228.864 0 0 228.864 0 512s228.864 512 512 512 512-228.864 512-512S795.136 0 512 0z m179.2 395.264h89.6v406.528H691.2V395.264z m-148.992 73.728h89.6v332.8h-89.6v-332.8z m-148.48 95.744h89.6v237.056H393.728v-237.056z m-148.992 237.056v-203.264h89.6v203.264H244.736zM806.4 271.872c1.024 10.24-2.048 20.48-10.24 28.16-3.584 3.584-7.68 5.632-12.288 7.68L265.728 500.736c-3.584 1.024-9.216 2.048-14.848 1.024-12.288-1.024-25.088-9.216-29.184-22.528-5.632-12.288-2.048-27.136 6.656-36.352 3.584-3.584 7.68-5.632 12.288-7.68l377.856-138.24-122.368-11.264c-9.216 0-16.896-5.632-23.552-12.288-5.632-7.68-9.216-15.872-7.68-26.112 1.024-19.456 19.456-32.768 37.376-30.72l271.36 25.088c17.92 2.048 31.744 13.312 32.768 30.208z" fill="#efb336" p-id="22228"></path></svg>