<?xml version="1.0" standalone="no"?><!DOCTYPE svg PUBLIC "-//W3C//DTD SVG 1.1//EN" "http://www.w3.org/Graphics/SVG/1.1/DTD/svg11.dtd"><svg t="1768190384222" class="icon" viewBox="0 0 1024 1024" version="1.1" xmlns="http://www.w3.org/2000/svg" p-id="99935" xmlns:xlink="http://www.w3.org/1999/xlink" width="200" height="200"><path d="M486.4 768a76.8512 76.8512 0 0 1-54.3232-131.072c20.5824-20.5824 217.7024-156.8768 256.9728-184.0128a25.5488 25.5488 0 0 1 35.584 35.584c-27.0848 39.3216-163.3792 236.3904-184.0128 256.9728a76.288 76.288 0 0 1-54.3232 22.4768z m114.6368-191.4368c-68.864 48.384-124.7232 88.576-132.7616 96.5632a25.6 25.6 0 0 0 36.2496 36.1984c7.936-8.0384 48.1792-63.8976 96.512-132.7616z" p-id="99936"></path><path d="M830.3616 296.0896C738.5088 204.2368 616.3456 153.6 486.4 153.6s-252.0576 50.5856-343.9104 142.4896S0.0512 510.1056 0.0512 640c0 96.7168 28.3136 190.1568 81.92 270.2336a25.6 25.6 0 0 0 21.2992 11.3664h766.4128a25.6 25.6 0 0 0 21.2992-11.3664 484.0448 484.0448 0 0 0 81.92-270.2336 483.1232 483.1232 0 0 0-142.4384-343.9104zM855.6544 870.4H117.0944a432.7936 432.7936 0 0 1-65.1776-204.8h24.832a25.6 25.6 0 0 0 0-51.2h-24.832c12.8-219.648 189.184-396.032 408.832-408.832V230.4a25.6 25.6 0 0 0 51.2 0v-24.832c219.648 12.8 396.032 189.184 408.832 408.832h-24.832a25.6 25.6 0 0 0 0 51.2h24.832a432.7936 432.7936 0 0 1-65.1776 204.8z" p-id="99937"></path></svg>